<?xml version="1.0" standalone="no"?>
<!DOCTYPE svg PUBLIC "-//W3C//DTD SVG 20010904//EN"
 "http://www.w3.org/TR/2001/REC-SVG-20010904/DTD/svg10.dtd">
<svg version="1.0" xmlns="http://www.w3.org/2000/svg"
 width="2298.000000pt" height="4000.000000pt" viewBox="0 0 2298.000000 4000.000000"
 preserveAspectRatio="xMidYMid meet">

<g transform="translate(0.000000,4000.000000) scale(0.100000,-0.100000)"
fill="#000000" stroke="none">
<path d="M0 20000 l0 -20000 11490 0 11490 0 0 20000 0 20000 -11490 0 -11490
0 0 -20000z m11411 1070 c89 -12 211 -36 244 -50 11 -4 42 -16 68 -25 161 -57
353 -200 458 -342 81 -109 156 -278 190 -428 9 -39 14 -125 14 -245 0 -195 -7
-244 -52 -380 -102 -303 -326 -531 -633 -644 -179 -66 -205 -68 -769 -73 -421
-4 -515 -2 -522 9 -10 15 -12 2171 -2 2181 11 11 912 8 1004 -3z"/>
<path d="M10922 19983 l3 -698 194 -2 c254 -2 342 14 458 84 111 66 173 143
233 288 36 89 45 153 44 330 0 183 -8 234 -50 335 -62 145 -158 248 -288 305
-100 44 -179 55 -397 55 l-199 0 2 -697z"/>
</g>
</svg>
